# xmcd
#
# Track frame offsets:
#	150
#	15957
#	30732
#	47027
#	64813
#	83503
#	104897
#	120756
#	136581
#
# Disc length: 1991 seconds
#
# Revision: 2
# Processed by: cddbd v1.5.2PL0 Copyright (c) Steve Scherf et al.
# Submitted via: audiograbber 1.83.01
#
DISCID=6407c509
DTITLE=Singer's Solution - SSC428
DYEAR=2013
DGENRE=Karaoke
TTITLE0=Jake Owen, - Days Of Gold
TTITLE1=Keith Urban and Miranda Lambert - We Were Us
TTITLE2=Cassadee Pope - Wasting All These Tears
TTITLE3=David Nail - Whatever She's Got
TTITLE4=The Band Perry - Don't Let Me Be Lonely
TTITLE5=Brad Paisley - I Can't Change The World
TTITLE6=Parmalee - Carolina
TTITLE7=The Civil Wars - One That Got Away, The
TTITLE8=Jason Aldean - When She Says Baby
EXTD=
EXTT0=
EXTT1=
EXTT2=
EXTT3=
EXTT4=
EXTT5=
EXTT6=
EXTT7=
EXTT8=
PLAYORDER=
